<svg height="682pt" viewBox="-124 -21 682 682.66669" width="682pt" xmlns="http://www.w3.org/2000/svg"><path d="m411.625 80-63.835938-63.835938v63.835938zm0 0"/><path d="m96.355469 365.710938h228.574219v-194.28125h-228.574219zm42.105469-159.414063c5.96875-2 12.457031 1.234375 14.457031 7.222656l23.4375 70.332031 23.445312-70.332031c1.550781-4.660156 5.925781-7.816406 10.84375-7.816406 4.925781 0 9.277344 3.144531 10.84375 7.816406l23.441407 70.332031 23.4375-70.332031c2.003906-5.988281 8.503906-9.214843 14.460937-7.222656 5.984375 2 9.222656 8.46875 7.21875 14.453125l-34.285156 102.863281c-1.5625 4.664063-5.929688 7.816407-10.855469 7.816407-4.917969 0-9.28125-3.144532-10.84375-7.816407l-23.441406-70.332031-23.4375 70.332031c-1.558594 4.664063-5.925782 7.816407-10.851563 7.816407-4.910156 0-9.277343-3.144532-10.84375-7.816407l-34.28125-102.863281c-1.96875-5.984375 1.261719-12.453125 7.253907-14.453125zm0 0"/><path d="m336.355469 102.855469c-6.308594 0-11.425781-5.117188-11.425781-11.425781v-91.429688h-331.429688v434.289062h434.289062v-331.433593zm11.433593 274.289062c0 6.308594-5.125 11.425781-11.433593 11.425781h-251.425781c-6.308594 0-11.429688-5.117187-11.429688-11.425781v-217.144531c0-6.308594 5.121094-11.429688 11.429688-11.429688h251.425781c6.308593 0 11.433593 5.121094 11.433593 11.429688zm0 0"/><path d="m222.070312 502.855469h-22.867187c-6.296875 0-11.429687 5.121093-11.429687 11.433593v68.566407c0 6.300781 5.132812 11.433593 11.429687 11.433593h22.867187c6.296876 0 11.429688-5.125 11.429688-11.433593v-68.566407c0-6.3125-5.121094-11.433593-11.429688-11.433593zm0 0"/><path d="m62.070312 502.855469v91.433593c25.214844 0 45.71875-20.503906 45.71875-45.71875 0-25.210937-20.519531-45.714843-45.71875-45.714843zm0 0"/><path d="m-6.5 457.144531v182.855469h434.289062v-182.855469zm68.570312 160h-11.425781c-6.308593 0-11.429687-5.121093-11.429687-11.433593v-114.28125c0-6.308594 5.121094-11.429688 11.429687-11.429688h11.425781c37.816407 0 68.574219 30.75 68.574219 68.570312 0 37.816407-30.765625 68.574219-68.574219 68.574219zm194.285157-34.289062c0 18.902343-15.371094 34.289062-34.285157 34.289062h-22.867187c-18.902344 0-34.285156-15.386719-34.285156-34.289062v-68.566407c0-18.90625 15.382812-34.289062 34.285156-34.289062h22.867187c18.90625 0 34.285157 15.382812 34.285157 34.289062zm68.679687 11.433593h45.609375c6.308594 0 11.425781 5.117188 11.425781 11.421876 0 6.3125-5.117187 11.433593-11.425781 11.433593h-45.609375c-18.960937 0-34.390625-15.429687-34.390625-34.390625v-68.363281c0-18.960937 15.429688-34.390625 34.390625-34.390625h45.609375c6.308594 0 11.425781 5.121094 11.425781 11.429688 0 6.308593-5.117187 11.425781-11.425781 11.425781h-45.609375c-6.359375 0-11.535156 5.175781-11.535156 11.535156v68.363281c0 6.351563 5.167969 11.535156 11.535156 11.535156zm0 0"/></svg>