<svg id="Layer_1" enable-background="new 0 0 256 256" height="512" viewBox="0 0 256 256" width="512" xmlns="http://www.w3.org/2000/svg"><g><g><circle cx="128" cy="127.998" fill="#f1f2f2" r="99.006"/></g><g><path d="m34.99 130c-1.1 0-2-.9-2-2s.9-2 2-2c1.11 0 2 .9 2 2s-.89 2-2 2zm.34-7.99c-.05 0-.11 0-.17 0-.53-.05-1.01-.3-1.36-.71-.34-.41-.5-.93-.46-1.46 2.02-23.59 12.77-45.49 30.27-61.64 17.61-16.25 40.47-25.2 64.39-25.21 1.1 0 2 .9 2 2 0 1.11-.9 2-2 2-46.86 0-86.69 36.54-90.67 83.19-.09 1.03-.97 1.83-2 1.83z" fill="#fff"/></g><g><path d="m192.829 53.168c15.061 17.37 24.176 40.035 24.176 64.83 0 54.679-44.326 99.006-99.006 99.006-24.795 0-47.46-9.115-64.83-24.176 18.153 20.935 44.945 34.176 74.83 34.176 54.679 0 99.006-44.326 99.006-99.006.001-29.884-13.24-56.676-34.176-74.83z" fill="#e6e7e8"/></g><g><path d="m195.458 55.54c16.468 17.681 26.548 41.391 26.548 67.459 0 54.679-44.326 99.006-99.006 99.006-26.068 0-49.777-10.08-67.458-26.547 18.075 19.406 43.847 31.547 72.458 31.547 54.679 0 99.006-44.326 99.006-99.006 0-28.612-12.142-54.384-31.548-72.459z" fill="#d1d3d4"/></g><g><g><g><g><path d="m199.948 196.02c-5.643 5.972-12.025 11.246-19.003 15.658-15.309 9.707-33.47 15.33-52.945 15.33-28.34 0-53.889-11.902-71.948-30.987 4.966-17.217 20.829-29.797 39.647-29.797h64.601c18.819-.001 34.682 12.579 39.648 29.796z" fill="#58595b"/></g><g><path d="m180.945 211.678v-14.509c0-11.964-5.11-22.758-13.257-30.29 15.494 2.812 27.97 14.242 32.259 29.14-5.643 5.973-12.025 11.247-19.002 15.659z" fill="#414042"/></g></g><g><g><path d="m116.143 144.1v29.344c0 2.27.652 4.493 1.878 6.403 4.666 7.272 15.293 7.272 19.959 0 1.226-1.911 1.878-4.133 1.878-6.403v-29.344z" fill="#fcc4ae"/></g><g><g><path d="m116.143 153.275c3.727 1.246 7.71 1.932 11.856 1.932 4.147 0 8.131-.686 11.858-1.932v-9.175h-23.714z" fill="#f2ad97"/></g><g><path d="m128 150.049c-20.638 0-37.368-16.73-37.368-37.368v-19.398c0-20.638 16.73-37.368 37.368-37.368 20.638 0 37.368 16.73 37.368 37.368v19.397c-.001 20.638-16.731 37.369-37.368 37.369z" fill="#ffd2c0"/></g><g><path d="m90.632 93.283v9.973c14.561-9.72 23.877-26.306 23.819-44.489 0-.106-.001-.212-.002-.318-13.939 5.426-23.817 18.976-23.817 34.834z" fill="#f2ad97"/></g><g><path d="m151.717 64.408c5.305 6.452 8.492 14.712 8.492 23.717v19.397c0 20.638-16.73 37.368-37.368 37.368-9.005 0-17.265-3.187-23.717-8.492 6.853 8.334 17.243 13.651 28.876 13.651 20.638 0 37.368-16.73 37.368-37.368v-19.398c-.001-11.632-5.317-22.022-13.651-28.875z" fill="#fcc4ae"/></g><g><path d="m90.633 112.681v-11.678c-6.648 0-12.037 5.389-12.037 12.037s5.389 12.037 12.037 12.037c.701 0 1.383-.072 2.051-.187-1.323-3.828-2.051-7.933-2.051-12.209z" fill="#ffd2c0"/></g><g><path d="m165.367 101.003v11.678c0 4.277-.728 8.381-2.051 12.208.668.115 1.35.187 2.051.187 6.648 0 12.037-5.389 12.037-12.037 0-6.647-5.389-12.036-12.037-12.036z" fill="#ffd2c0"/></g><g><path d="m172.784 103.559c1.601 2.044 2.556 4.619 2.556 7.417 0 6.443-5.062 11.703-11.426 12.021-.183.638-.383 1.268-.598 1.892.668.115 1.35.187 2.051.187 6.648 0 12.037-5.389 12.037-12.037 0-3.849-1.807-7.276-4.62-9.48z" fill="#fcc4ae"/></g><g><path d="m114.45 48.45c.063 19.841-11.034 37.78-27.929 46.973-3.574 1.945-7.962-.854-7.604-4.907 1.215-13.768 7.334-26.37 16.952-35.245 5.197-4.813 11.413-8.524 18.427-10.754.1 1.298.154 2.606.154 3.933z" fill="#7c3108"/></g><g><path d="m174.046 92.149c-31.324 16.171-70.706-2.287-78.177-36.879 5.167-4.786 11.343-8.482 18.309-10.716 29.122-9.454 58.144 12.709 62.566 42.33.319 2.14-.775 4.272-2.698 5.265z" fill="#8c3f0a"/></g><g><path d="m176.743 86.883c-2.121-14.207-9.901-26.698-20.637-34.808 5.316 7.004 9.014 15.421 10.377 24.547.32 2.141-.774 4.273-2.697 5.266-19.505 10.069-42.133 6.711-58.237-5.607 15.414 20.22 44.349 28.335 68.498 15.868 1.922-.993 3.016-3.125 2.696-5.266z" fill="#7c3108"/></g><g><g><circle cx="110.439" cy="107.785" fill="#995222" r="4.527"/></g><g><circle cx="145.561" cy="107.785" fill="#995222" r="4.527"/></g></g><g><g><path d="m90.633 112.681v-6.558c-3.82 0-6.917 3.097-6.917 6.917s3.097 6.917 6.917 6.917c.243 0 .473-.047.709-.072-.456-2.333-.709-4.738-.709-7.204z" fill="#f2ad97"/></g><g><path d="m165.373 112.681v-6.558c3.82 0 6.917 3.097 6.917 6.917s-3.097 6.917-6.917 6.917c-.243 0-.473-.047-.709-.072.456-2.333.709-4.738.709-7.204z" fill="#f2ad97"/></g></g></g></g><g><path d="m134.645 126.53c1.028 0 1.807.96 1.569 1.96-.884 3.717-4.226 6.482-8.213 6.482-3.988 0-7.33-2.765-8.213-6.482-.238-1 .541-1.96 1.569-1.96z" fill="#e59076"/></g><g><g><g><path d="m154.678 166.223-22.368 60.682c-1.436.062-2.873.103-4.309.103-1.437 0-2.873-.041-4.309-.103l-22.348-60.682 14.755-6.669v6.403l11.901 18.53 11.902-18.531v-6.403z" fill="#d1d3d4"/></g><g><path d="m101.341 166.215 11.135 30.204c.453 1.228 2.027 1.574 2.952.648l12.572-12.572-11.894-18.537v-6.407z" fill="#fff"/></g><g><path d="m154.67 166.215-11.145 30.204c-.453 1.228-2.027 1.574-2.952.648l-12.573-12.572 11.894-18.537v-6.407z" fill="#fff"/></g><g><path d="m137.957 194.451-7.419 7.419c-1.402 1.402-3.674 1.402-5.075 0l-7.419-7.419 9.957-9.957z" fill="#808285"/></g><g><path d="m135.285 218.799-2.976 8.106c-1.436.062-2.873.103-4.309.103-1.437 0-2.873-.041-4.309-.103l-2.976-8.106 2.196-19.475 2.545 2.545c1.416 1.395 3.673 1.395 5.089 0l2.545-2.545z" fill="#58595b"/></g></g><g><path d="m123.691 226.905c-2.36-.082-4.679-.267-6.977-.554l-23.948-25.939c-.677-.739-.636-1.888.144-2.545l6.321-5.582c1.17-1.046.554-2.975-.985-3.14l-7.449-.8c-1.149-.123-1.888-1.293-1.498-2.401l7.162-19.721h4.884z" fill="#808285"/></g><g><path d="m165.205 188.345-7.449.8c-1.539.164-2.155 2.093-.985 3.14l6.32 5.582c.78.657.821 1.806.144 2.545l-23.948 25.939c-2.298.287-4.617.472-6.977.554l22.368-60.682h4.884l7.141 19.721c.39 1.108-.349 2.278-1.498 2.401z" fill="#808285"/></g></g></g></g></g></svg>